<mxfile host="app.diagrams.net" modified="2023-11-01T17:16:19.664Z" agent="Mozilla/5.0 (Windows NT 10.0; Win64; x64) AppleWebKit/537.36 (KHTML, like Gecko) Chrome/118.0.0.0 Safari/537.36 Edg/118.0.2088.76" etag="-yy7Iepljrvalwc-J7nQ" version="22.0.8" type="device">
  <diagram name="Seite-1" id="q3xato2e6NY34qq9cj7r">
    <mxGraphModel dx="792" dy="429" grid="1" gridSize="10" guides="1" tooltips="1" connect="1" arrows="1" fold="1" page="1" pageScale="1" pageWidth="827" pageHeight="1169" math="0" shadow="0">
      <root>
        <mxCell id="0" />
        <mxCell id="1" parent="0" />
        <mxCell id="9mUgk6PYQdZ4tkyqG1O2-59" value="" style="rounded=0;whiteSpace=wrap;html=1;" vertex="1" parent="1">
          <mxGeometry x="80" y="290" width="460" height="170" as="geometry" />
        </mxCell>
        <mxCell id="9mUgk6PYQdZ4tkyqG1O2-1" value="Videospielentwickler" style="rounded=0;whiteSpace=wrap;html=1;" vertex="1" parent="1">
          <mxGeometry x="40" y="40" width="120" height="40" as="geometry" />
        </mxCell>
        <mxCell id="9mUgk6PYQdZ4tkyqG1O2-2" value="Programmier-schnittstelle (API)" style="rounded=0;whiteSpace=wrap;html=1;" vertex="1" parent="1">
          <mxGeometry x="200" y="90" width="120" height="40" as="geometry" />
        </mxCell>
        <mxCell id="9mUgk6PYQdZ4tkyqG1O2-3" value="Videospielengine" style="rounded=0;whiteSpace=wrap;html=1;" vertex="1" parent="1">
          <mxGeometry x="360" y="90" width="120" height="40" as="geometry" />
        </mxCell>
        <mxCell id="9mUgk6PYQdZ4tkyqG1O2-9" style="edgeStyle=orthogonalEdgeStyle;rounded=0;orthogonalLoop=1;jettySize=auto;html=1;exitX=0.5;exitY=0;exitDx=0;exitDy=0;entryX=0.5;entryY=1;entryDx=0;entryDy=0;dashed=1;endArrow=none;endFill=0;" edge="1" parent="1" source="9mUgk6PYQdZ4tkyqG1O2-8" target="9mUgk6PYQdZ4tkyqG1O2-1">
          <mxGeometry relative="1" as="geometry" />
        </mxCell>
        <mxCell id="9mUgk6PYQdZ4tkyqG1O2-11" style="edgeStyle=orthogonalEdgeStyle;rounded=0;orthogonalLoop=1;jettySize=auto;html=1;exitX=0.5;exitY=0;exitDx=0;exitDy=0;entryX=0.5;entryY=1;entryDx=0;entryDy=0;endArrow=none;endFill=0;dashed=1;" edge="1" parent="1" source="9mUgk6PYQdZ4tkyqG1O2-10" target="9mUgk6PYQdZ4tkyqG1O2-2">
          <mxGeometry relative="1" as="geometry" />
        </mxCell>
        <mxCell id="9mUgk6PYQdZ4tkyqG1O2-13" style="edgeStyle=orthogonalEdgeStyle;rounded=0;orthogonalLoop=1;jettySize=auto;html=1;exitX=0.5;exitY=0;exitDx=0;exitDy=0;entryX=0.5;entryY=1;entryDx=0;entryDy=0;endArrow=none;endFill=0;dashed=1;" edge="1" parent="1" source="9mUgk6PYQdZ4tkyqG1O2-12" target="9mUgk6PYQdZ4tkyqG1O2-3">
          <mxGeometry relative="1" as="geometry" />
        </mxCell>
        <mxCell id="9mUgk6PYQdZ4tkyqG1O2-18" value="" style="endArrow=classic;html=1;rounded=0;fontStyle=1;entryX=0;entryY=0.5;entryDx=0;entryDy=0;" edge="1" parent="1" target="9mUgk6PYQdZ4tkyqG1O2-2">
          <mxGeometry width="50" height="50" relative="1" as="geometry">
            <mxPoint x="105" y="110" as="sourcePoint" />
            <mxPoint x="145" y="110" as="targetPoint" />
            <Array as="points">
              <mxPoint x="105" y="110" />
            </Array>
          </mxGeometry>
        </mxCell>
        <mxCell id="9mUgk6PYQdZ4tkyqG1O2-19" value="&lt;font style=&quot;font-size: 8px;&quot;&gt;API importieren&lt;/font&gt;" style="text;html=1;strokeColor=none;fillColor=none;align=left;verticalAlign=middle;whiteSpace=wrap;rounded=0;" vertex="1" parent="1">
          <mxGeometry x="110" y="100" width="60" height="10" as="geometry" />
        </mxCell>
        <mxCell id="9mUgk6PYQdZ4tkyqG1O2-26" value="" style="endArrow=classic;html=1;rounded=0;" edge="1" parent="1">
          <mxGeometry width="50" height="50" relative="1" as="geometry">
            <mxPoint x="260" y="160" as="sourcePoint" />
            <mxPoint x="105" y="160" as="targetPoint" />
          </mxGeometry>
        </mxCell>
        <mxCell id="9mUgk6PYQdZ4tkyqG1O2-27" value="&lt;font style=&quot;font-size: 8px;&quot;&gt;API importiert&lt;/font&gt;" style="text;html=1;strokeColor=none;fillColor=none;align=right;verticalAlign=middle;whiteSpace=wrap;rounded=0;" vertex="1" parent="1">
          <mxGeometry x="190" y="150" width="60" height="10" as="geometry" />
        </mxCell>
        <mxCell id="9mUgk6PYQdZ4tkyqG1O2-10" value="" style="rounded=0;whiteSpace=wrap;html=1;" vertex="1" parent="1">
          <mxGeometry x="255" y="150" width="10" height="20" as="geometry" />
        </mxCell>
        <mxCell id="9mUgk6PYQdZ4tkyqG1O2-28" value="" style="endArrow=classic;html=1;rounded=0;fontStyle=1;" edge="1" parent="1">
          <mxGeometry width="50" height="50" relative="1" as="geometry">
            <mxPoint x="110" y="199.83" as="sourcePoint" />
            <mxPoint x="255" y="199.83" as="targetPoint" />
            <Array as="points">
              <mxPoint x="100" y="199.83" />
            </Array>
          </mxGeometry>
        </mxCell>
        <mxCell id="9mUgk6PYQdZ4tkyqG1O2-29" value="&lt;span style=&quot;font-size: 8px;&quot;&gt;Instanz der Objektklasse erstellen&lt;/span&gt;" style="text;html=1;strokeColor=none;fillColor=none;align=left;verticalAlign=middle;whiteSpace=wrap;rounded=0;" vertex="1" parent="1">
          <mxGeometry x="110" y="190" width="130" height="10" as="geometry" />
        </mxCell>
        <mxCell id="9mUgk6PYQdZ4tkyqG1O2-31" style="edgeStyle=orthogonalEdgeStyle;rounded=0;orthogonalLoop=1;jettySize=auto;html=1;exitX=0.5;exitY=0;exitDx=0;exitDy=0;entryX=0.5;entryY=1;entryDx=0;entryDy=0;endArrow=none;endFill=0;dashed=1;" edge="1" parent="1" source="9mUgk6PYQdZ4tkyqG1O2-30" target="9mUgk6PYQdZ4tkyqG1O2-10">
          <mxGeometry relative="1" as="geometry" />
        </mxCell>
        <mxCell id="9mUgk6PYQdZ4tkyqG1O2-32" value="" style="endArrow=classic;html=1;rounded=0;fontStyle=1;" edge="1" parent="1">
          <mxGeometry width="50" height="50" relative="1" as="geometry">
            <mxPoint x="270" y="220" as="sourcePoint" />
            <mxPoint x="415" y="220" as="targetPoint" />
            <Array as="points">
              <mxPoint x="260" y="220" />
            </Array>
          </mxGeometry>
        </mxCell>
        <mxCell id="9mUgk6PYQdZ4tkyqG1O2-33" value="&lt;span style=&quot;font-size: 8px;&quot;&gt;Überprüfen, ob Objekt existiert&lt;/span&gt;" style="text;html=1;strokeColor=none;fillColor=none;align=left;verticalAlign=middle;whiteSpace=wrap;rounded=0;" vertex="1" parent="1">
          <mxGeometry x="270" y="210" width="130" height="10" as="geometry" />
        </mxCell>
        <mxCell id="9mUgk6PYQdZ4tkyqG1O2-34" value="" style="endArrow=classic;html=1;rounded=0;" edge="1" parent="1">
          <mxGeometry width="50" height="50" relative="1" as="geometry">
            <mxPoint x="420" y="260" as="sourcePoint" />
            <mxPoint x="265" y="260" as="targetPoint" />
          </mxGeometry>
        </mxCell>
        <mxCell id="9mUgk6PYQdZ4tkyqG1O2-35" value="&lt;font style=&quot;font-size: 8px;&quot;&gt;Über Objektexistenz informieren&lt;/font&gt;" style="text;html=1;strokeColor=none;fillColor=none;align=right;verticalAlign=middle;whiteSpace=wrap;rounded=0;" vertex="1" parent="1">
          <mxGeometry x="270" y="250" width="140" height="10" as="geometry" />
        </mxCell>
        <mxCell id="9mUgk6PYQdZ4tkyqG1O2-36" value="" style="endArrow=classic;html=1;rounded=0;" edge="1" parent="1">
          <mxGeometry width="50" height="50" relative="1" as="geometry">
            <mxPoint x="260" y="270" as="sourcePoint" />
            <mxPoint x="105" y="270" as="targetPoint" />
          </mxGeometry>
        </mxCell>
        <mxCell id="9mUgk6PYQdZ4tkyqG1O2-37" value="&lt;span style=&quot;font-size: 8px;&quot;&gt;Instanz der Objektklasse zurückgeben&lt;/span&gt;" style="text;html=1;strokeColor=none;fillColor=none;align=right;verticalAlign=middle;whiteSpace=wrap;rounded=0;" vertex="1" parent="1">
          <mxGeometry x="110" y="260" width="140" height="10" as="geometry" />
        </mxCell>
        <mxCell id="9mUgk6PYQdZ4tkyqG1O2-12" value="" style="rounded=0;whiteSpace=wrap;html=1;" vertex="1" parent="1">
          <mxGeometry x="415" y="210" width="10" height="60" as="geometry" />
        </mxCell>
        <mxCell id="9mUgk6PYQdZ4tkyqG1O2-30" value="" style="rounded=0;whiteSpace=wrap;html=1;" vertex="1" parent="1">
          <mxGeometry x="255" y="190" width="10" height="90" as="geometry" />
        </mxCell>
        <mxCell id="9mUgk6PYQdZ4tkyqG1O2-41" style="edgeStyle=orthogonalEdgeStyle;rounded=0;orthogonalLoop=1;jettySize=auto;html=1;exitX=0.5;exitY=0;exitDx=0;exitDy=0;entryX=0.5;entryY=1;entryDx=0;entryDy=0;endArrow=none;endFill=0;dashed=1;" edge="1" parent="1" source="9mUgk6PYQdZ4tkyqG1O2-39" target="9mUgk6PYQdZ4tkyqG1O2-30">
          <mxGeometry relative="1" as="geometry" />
        </mxCell>
        <mxCell id="9mUgk6PYQdZ4tkyqG1O2-40" value="" style="endArrow=classic;html=1;rounded=0;fontStyle=1;" edge="1" parent="1">
          <mxGeometry width="50" height="50" relative="1" as="geometry">
            <mxPoint x="110" y="330" as="sourcePoint" />
            <mxPoint x="255" y="330" as="targetPoint" />
            <Array as="points">
              <mxPoint x="100" y="330" />
            </Array>
          </mxGeometry>
        </mxCell>
        <mxCell id="9mUgk6PYQdZ4tkyqG1O2-42" value="&lt;span style=&quot;font-size: 8px;&quot;&gt;Instanzattribut bearbeiten&lt;/span&gt;" style="text;html=1;strokeColor=none;fillColor=none;align=left;verticalAlign=middle;whiteSpace=wrap;rounded=0;" vertex="1" parent="1">
          <mxGeometry x="110" y="320" width="140" height="10" as="geometry" />
        </mxCell>
        <mxCell id="9mUgk6PYQdZ4tkyqG1O2-43" value="" style="endArrow=classic;html=1;rounded=0;fontStyle=1;" edge="1" parent="1">
          <mxGeometry width="50" height="50" relative="1" as="geometry">
            <mxPoint x="270" y="350" as="sourcePoint" />
            <mxPoint x="415" y="350" as="targetPoint" />
            <Array as="points">
              <mxPoint x="260" y="350" />
            </Array>
          </mxGeometry>
        </mxCell>
        <mxCell id="9mUgk6PYQdZ4tkyqG1O2-45" style="edgeStyle=orthogonalEdgeStyle;rounded=0;orthogonalLoop=1;jettySize=auto;html=1;exitX=0.5;exitY=0;exitDx=0;exitDy=0;entryX=0.5;entryY=1;entryDx=0;entryDy=0;endArrow=none;endFill=0;dashed=1;" edge="1" parent="1" source="9mUgk6PYQdZ4tkyqG1O2-44" target="9mUgk6PYQdZ4tkyqG1O2-12">
          <mxGeometry relative="1" as="geometry" />
        </mxCell>
        <mxCell id="9mUgk6PYQdZ4tkyqG1O2-46" value="&lt;font style=&quot;font-size: 8px;&quot;&gt;Bearbeitetes Attribut weiterleiten&lt;/font&gt;" style="text;html=1;strokeColor=none;fillColor=none;align=left;verticalAlign=middle;whiteSpace=wrap;rounded=0;" vertex="1" parent="1">
          <mxGeometry x="270" y="340" width="140" height="10" as="geometry" />
        </mxCell>
        <mxCell id="9mUgk6PYQdZ4tkyqG1O2-47" value="" style="endArrow=classic;html=1;rounded=0;" edge="1" parent="1">
          <mxGeometry width="50" height="50" relative="1" as="geometry">
            <mxPoint x="420" y="420" as="sourcePoint" />
            <mxPoint x="265" y="420" as="targetPoint" />
          </mxGeometry>
        </mxCell>
        <mxCell id="9mUgk6PYQdZ4tkyqG1O2-48" value="&lt;font style=&quot;font-size: 8px;&quot;&gt;Über Update informieren&lt;/font&gt;" style="text;html=1;strokeColor=none;fillColor=none;align=right;verticalAlign=middle;whiteSpace=wrap;rounded=0;" vertex="1" parent="1">
          <mxGeometry x="270" y="410" width="140" height="10" as="geometry" />
        </mxCell>
        <mxCell id="9mUgk6PYQdZ4tkyqG1O2-52" value="" style="endArrow=none;html=1;rounded=0;endFill=0;" edge="1" parent="1">
          <mxGeometry width="50" height="50" relative="1" as="geometry">
            <mxPoint x="425" y="370" as="sourcePoint" />
            <mxPoint x="460" y="370" as="targetPoint" />
          </mxGeometry>
        </mxCell>
        <mxCell id="9mUgk6PYQdZ4tkyqG1O2-53" value="" style="endArrow=classic;html=1;rounded=0;" edge="1" parent="1">
          <mxGeometry width="50" height="50" relative="1" as="geometry">
            <mxPoint x="460" y="399.81" as="sourcePoint" />
            <mxPoint x="425" y="399.81" as="targetPoint" />
            <Array as="points">
              <mxPoint x="435" y="399.81" />
            </Array>
          </mxGeometry>
        </mxCell>
        <mxCell id="9mUgk6PYQdZ4tkyqG1O2-54" value="" style="endArrow=none;html=1;rounded=0;" edge="1" parent="1">
          <mxGeometry width="50" height="50" relative="1" as="geometry">
            <mxPoint x="460" y="400" as="sourcePoint" />
            <mxPoint x="460" y="370" as="targetPoint" />
          </mxGeometry>
        </mxCell>
        <mxCell id="9mUgk6PYQdZ4tkyqG1O2-55" value="&lt;font style=&quot;font-size: 8px;&quot;&gt;Attribut bearbeiten und Objekt updaten&lt;/font&gt;" style="text;html=1;strokeColor=none;fillColor=none;align=left;verticalAlign=middle;whiteSpace=wrap;rounded=0;" vertex="1" parent="1">
          <mxGeometry x="460" y="370" width="80" height="30" as="geometry" />
        </mxCell>
        <mxCell id="9mUgk6PYQdZ4tkyqG1O2-56" value="" style="endArrow=classic;html=1;rounded=0;" edge="1" parent="1">
          <mxGeometry width="50" height="50" relative="1" as="geometry">
            <mxPoint x="260" y="440" as="sourcePoint" />
            <mxPoint x="105" y="440" as="targetPoint" />
          </mxGeometry>
        </mxCell>
        <mxCell id="9mUgk6PYQdZ4tkyqG1O2-57" value="&lt;font style=&quot;font-size: 8px;&quot;&gt;Updateinformation weiterleiten&lt;/font&gt;" style="text;html=1;strokeColor=none;fillColor=none;align=right;verticalAlign=middle;whiteSpace=wrap;rounded=0;" vertex="1" parent="1">
          <mxGeometry x="110" y="430" width="140" height="10" as="geometry" />
        </mxCell>
        <mxCell id="9mUgk6PYQdZ4tkyqG1O2-8" value="" style="rounded=0;whiteSpace=wrap;html=1;" vertex="1" parent="1">
          <mxGeometry x="95" y="100" width="10" height="350" as="geometry" />
        </mxCell>
        <mxCell id="9mUgk6PYQdZ4tkyqG1O2-64" value="Schleife" style="shape=card;whiteSpace=wrap;html=1;direction=south;noLabel=0;flipV=1;size=20;align=left;" vertex="1" parent="1">
          <mxGeometry x="80" y="290" width="70" height="30" as="geometry" />
        </mxCell>
        <mxCell id="9mUgk6PYQdZ4tkyqG1O2-39" value="" style="rounded=0;whiteSpace=wrap;html=1;" vertex="1" parent="1">
          <mxGeometry x="255" y="320" width="10" height="130" as="geometry" />
        </mxCell>
        <mxCell id="9mUgk6PYQdZ4tkyqG1O2-44" value="" style="rounded=0;whiteSpace=wrap;html=1;" vertex="1" parent="1">
          <mxGeometry x="415" y="340" width="10" height="90" as="geometry" />
        </mxCell>
      </root>
    </mxGraphModel>
  </diagram>
</mxfile>
